<svg width="111" height="12" viewBox="0 0 111 12" fill="none" xmlns="http://www.w3.org/2000/svg">
<path d="M29.7929 1.576V3.22H27.5609V10H25.5089V3.22H23.2769V1.576H29.7929Z" fill="white"/>
<path d="M34.9387 3.232C35.7067 3.232 36.3227 3.488 36.7867 4C37.2507 4.50399 37.4827 5.2 37.4827 6.088V10H35.4427V6.364C35.4427 5.91599 35.3267 5.568 35.0947 5.31999C34.8627 5.07199 34.5507 4.94799 34.1587 4.94799C33.7667 4.94799 33.4547 5.07199 33.2227 5.31999C32.9907 5.568 32.8747 5.91599 32.8747 6.364V10H30.8227V1.12H32.8747V4.204C33.0827 3.90799 33.3667 3.67199 33.7267 3.49599C34.0867 3.31999 34.4907 3.232 34.9387 3.232Z" fill="white"/>
<path d="M45.2207 6.54399C45.2207 6.736 45.2087 6.936 45.1847 7.144H40.5407C40.5727 7.56 40.7047 7.88 40.9367 8.104C41.1767 8.31999 41.4687 8.428 41.8127 8.428C42.3247 8.428 42.6807 8.212 42.8807 7.77999H45.0647C44.9527 8.21999 44.7487 8.616 44.4527 8.968C44.1647 9.32 43.8007 9.59599 43.3607 9.79599C42.9207 9.99599 42.4287 10.096 41.8847 10.096C41.2287 10.096 40.6447 9.95599 40.1327 9.67599C39.6207 9.396 39.2207 8.99599 38.9327 8.476C38.6447 7.956 38.5007 7.348 38.5007 6.652C38.5007 5.956 38.6407 5.34799 38.9207 4.82799C39.2087 4.30799 39.6087 3.90799 40.1207 3.628C40.6327 3.34799 41.2207 3.20799 41.8847 3.20799C42.5327 3.20799 43.1087 3.344 43.6127 3.616C44.1167 3.888 44.5087 4.276 44.7887 4.77999C45.0767 5.284 45.2207 5.87199 45.2207 6.54399ZM43.1207 6.00399C43.1207 5.65199 43.0007 5.37199 42.7607 5.16399C42.5207 4.95599 42.2207 4.85199 41.8607 4.85199C41.5167 4.85199 41.2247 4.95199 40.9847 5.152C40.7527 5.352 40.6087 5.63599 40.5527 6.00399H43.1207Z" fill="white"/>
<path d="M45.9552 5.77599C45.9552 4.94399 46.1352 4.204 46.4952 3.556C46.8552 2.9 47.3552 2.39199 47.9952 2.03199C48.6432 1.66399 49.3752 1.47999 50.1912 1.47999C51.1912 1.47999 52.0472 1.74399 52.7592 2.27199C53.4712 2.79999 53.9472 3.51999 54.1872 4.43199H51.9312C51.7632 4.08 51.5232 3.812 51.2112 3.628C50.9072 3.44399 50.5592 3.35199 50.1672 3.35199C49.5352 3.35199 49.0232 3.572 48.6312 4.012C48.2392 4.45199 48.0432 5.03999 48.0432 5.77599C48.0432 6.51199 48.2392 7.1 48.6312 7.54C49.0232 7.98 49.5352 8.2 50.1672 8.2C50.5592 8.2 50.9072 8.108 51.2112 7.924C51.5232 7.74 51.7632 7.472 51.9312 7.12H54.1872C53.9472 8.03199 53.4712 8.752 52.7592 9.27999C52.0472 9.8 51.1912 10.06 50.1912 10.06C49.3752 10.06 48.6432 9.87999 47.9952 9.51999C47.3552 9.15199 46.8552 8.644 46.4952 7.996C46.1352 7.34799 45.9552 6.608 45.9552 5.77599Z" fill="white"/>
<path d="M57.4958 1.12V10H55.4438V1.12H57.4958Z" fill="white"/>
<path d="M62.0309 10.096C61.3749 10.096 60.7829 9.95599 60.2549 9.67599C59.7349 9.396 59.3229 8.99599 59.0189 8.476C58.7229 7.956 58.5749 7.348 58.5749 6.652C58.5749 5.96399 58.7269 5.36 59.0309 4.84C59.3349 4.312 59.7509 3.90799 60.2789 3.628C60.8069 3.34799 61.3989 3.20799 62.0549 3.20799C62.7109 3.20799 63.3029 3.34799 63.8309 3.628C64.3589 3.90799 64.7749 4.312 65.0789 4.84C65.3829 5.36 65.5349 5.96399 65.5349 6.652C65.5349 7.34 65.3789 7.948 65.0669 8.476C64.7629 8.99599 64.3429 9.396 63.8069 9.67599C63.2789 9.95599 62.6869 10.096 62.0309 10.096ZM62.0309 8.32C62.4229 8.32 62.7549 8.17599 63.0269 7.888C63.3069 7.6 63.4469 7.18799 63.4469 6.652C63.4469 6.116 63.3109 5.70399 63.0389 5.41599C62.7749 5.12799 62.4469 4.98399 62.0549 4.98399C61.6549 4.98399 61.3229 5.12799 61.0589 5.41599C60.7949 5.69599 60.6629 6.108 60.6629 6.652C60.6629 7.18799 60.7909 7.6 61.0469 7.888C61.3109 8.17599 61.6389 8.32 62.0309 8.32Z" fill="white"/>
<path d="M70.3555 8.26V10H69.3115C68.5675 10 67.9875 9.81999 67.5715 9.46C67.1555 9.092 66.9475 8.496 66.9475 7.672V5.008H66.1315V3.304H66.9475V1.672H68.9995V3.304H70.3435V5.008H68.9995V7.696C68.9995 7.896 69.0475 8.04 69.1435 8.128C69.2395 8.216 69.3995 8.26 69.6235 8.26H70.3555Z" fill="white"/>
<path d="M75.6145 3.232C76.3825 3.232 76.9985 3.488 77.4625 4C77.9265 4.50399 78.1585 5.2 78.1585 6.088V10H76.1185V6.364C76.1185 5.91599 76.0025 5.568 75.7705 5.31999C75.5385 5.07199 75.2265 4.94799 74.8345 4.94799C74.4425 4.94799 74.1305 5.07199 73.8985 5.31999C73.6665 5.568 73.5505 5.91599 73.5505 6.364V10H71.4985V1.12H73.5505V4.204C73.7585 3.90799 74.0425 3.67199 74.4025 3.49599C74.7625 3.31999 75.1665 3.232 75.6145 3.232Z" fill="white"/>
<path d="M82.6324 10.084C82.0164 10.084 81.4644 9.984 80.9764 9.784C80.4884 9.584 80.0964 9.288 79.8004 8.896C79.5124 8.50399 79.3604 8.032 79.3444 7.48H81.5285C81.5604 7.792 81.6684 8.03199 81.8524 8.2C82.0364 8.35999 82.2765 8.44 82.5724 8.44C82.8764 8.44 83.1164 8.37199 83.2924 8.236C83.4685 8.092 83.5564 7.896 83.5564 7.64799C83.5564 7.43999 83.4844 7.26799 83.3404 7.132C83.2044 6.996 83.0324 6.884 82.8244 6.79599C82.6245 6.70799 82.3364 6.608 81.9604 6.496C81.4165 6.328 80.9725 6.16 80.6284 5.99199C80.2844 5.82399 79.9884 5.57599 79.7404 5.24799C79.4924 4.92 79.3684 4.49199 79.3684 3.96399C79.3684 3.18 79.6524 2.568 80.2204 2.128C80.7884 1.68 81.5284 1.456 82.4404 1.456C83.3684 1.456 84.1164 1.68 84.6844 2.128C85.2524 2.568 85.5564 3.184 85.5964 3.976H83.3764C83.3605 3.704 83.2604 3.492 83.0764 3.34C82.8924 3.18 82.6564 3.09999 82.3684 3.09999C82.1204 3.09999 81.9204 3.16799 81.7684 3.304C81.6164 3.43199 81.5404 3.61999 81.5404 3.86799C81.5404 4.13999 81.6684 4.35199 81.9244 4.50399C82.1804 4.656 82.5804 4.81999 83.1244 4.996C83.6684 5.18 84.1085 5.356 84.4445 5.52399C84.7885 5.69199 85.0844 5.936 85.3324 6.256C85.5804 6.576 85.7044 6.988 85.7044 7.492C85.7044 7.972 85.5804 8.408 85.3324 8.8C85.0924 9.192 84.7404 9.50399 84.2764 9.736C83.8124 9.968 83.2645 10.084 82.6324 10.084Z" fill="white"/>
<path d="M90.6993 8.26V10H89.6553C88.9113 10 88.3313 9.81999 87.9153 9.46C87.4993 9.092 87.2913 8.496 87.2913 7.672V5.008H86.4753V3.304H87.2913V1.672H89.3433V3.304H90.6873V5.008H89.3433V7.696C89.3433 7.896 89.3913 8.04 89.4873 8.128C89.5833 8.216 89.7433 8.26 89.9673 8.26H90.6993Z" fill="white"/>
<path d="M94.8903 10.096C94.2343 10.096 93.6423 9.95599 93.1143 9.67599C92.5943 9.396 92.1823 8.99599 91.8783 8.476C91.5823 7.956 91.4343 7.348 91.4343 6.652C91.4343 5.96399 91.5863 5.36 91.8903 4.84C92.1943 4.312 92.6103 3.90799 93.1383 3.628C93.6663 3.34799 94.2583 3.20799 94.9143 3.20799C95.5703 3.20799 96.1623 3.34799 96.6903 3.628C97.2183 3.90799 97.6343 4.312 97.9383 4.84C98.2423 5.36 98.3943 5.96399 98.3943 6.652C98.3943 7.34 98.2383 7.948 97.9263 8.476C97.6223 8.99599 97.2023 9.396 96.6663 9.67599C96.1383 9.95599 95.5463 10.096 94.8903 10.096ZM94.8903 8.32C95.2823 8.32 95.6143 8.17599 95.8863 7.888C96.1663 7.6 96.3063 7.18799 96.3063 6.652C96.3063 6.116 96.1703 5.70399 95.8983 5.41599C95.6343 5.12799 95.3063 4.98399 94.9143 4.98399C94.5143 4.98399 94.1823 5.12799 93.9183 5.41599C93.6543 5.69599 93.5223 6.108 93.5223 6.652C93.5223 7.18799 93.6503 7.6 93.9063 7.888C94.1703 8.17599 94.4983 8.32 94.8903 8.32Z" fill="white"/>
<path d="M101.535 4.41999C101.775 4.05199 102.075 3.764 102.435 3.556C102.795 3.34 103.195 3.232 103.635 3.232V5.404H103.071C102.559 5.404 102.175 5.516 101.919 5.74C101.663 5.956 101.535 6.34 101.535 6.892V10H99.4829V3.304H101.535V4.41999Z" fill="white"/>
<path d="M110.928 6.54399C110.928 6.736 110.916 6.936 110.892 7.144H106.248C106.28 7.56 106.412 7.88 106.644 8.104C106.884 8.31999 107.176 8.428 107.52 8.428C108.032 8.428 108.388 8.212 108.588 7.77999H110.772C110.66 8.21999 110.456 8.616 110.16 8.968C109.872 9.32 109.508 9.59599 109.068 9.79599C108.628 9.99599 108.136 10.096 107.592 10.096C106.936 10.096 106.352 9.95599 105.84 9.67599C105.328 9.396 104.928 8.99599 104.64 8.476C104.352 7.956 104.208 7.348 104.208 6.652C104.208 5.956 104.348 5.34799 104.628 4.82799C104.916 4.30799 105.316 3.90799 105.828 3.628C106.34 3.34799 106.928 3.20799 107.592 3.20799C108.24 3.20799 108.816 3.344 109.32 3.616C109.824 3.888 110.216 4.276 110.496 4.77999C110.784 5.284 110.928 5.87199 110.928 6.54399ZM108.828 6.00399C108.828 5.65199 108.708 5.37199 108.468 5.16399C108.228 4.95599 107.928 4.85199 107.568 4.85199C107.224 4.85199 106.932 4.95199 106.692 5.152C106.46 5.352 106.316 5.63599 106.26 6.00399H108.828Z" fill="white"/>
<path d="M2.98889 5.3L2.32222 5.66667C2.16667 5.75556 2 5.77778 1.82222 5.73333C1.64444 5.68889 1.51111 5.58889 1.42222 5.43333L0.0888889 3.1C0 2.94444 -0.0222222 2.77778 0.0222222 2.6C0.0666667 2.42222 0.166667 2.28889 0.322222 2.2L4.15556 0H5.32222C5.42222 0 5.50278 0.0305556 5.56389 0.0916667C5.625 0.152778 5.65556 0.233333 5.65556 0.333333V0.666667C5.65556 1.03333 5.78611 1.34722 6.04722 1.60833C6.30833 1.86944 6.62222 2 6.98889 2C7.35556 2 7.66945 1.86944 7.93056 1.60833C8.19167 1.34722 8.32222 1.03333 8.32222 0.666667V0.333333C8.32222 0.233333 8.35278 0.152778 8.41389 0.0916667C8.475 0.0305556 8.55556 0 8.65556 0H9.82222L13.6556 2.2C13.8111 2.28889 13.9111 2.42222 13.9556 2.6C14 2.77778 13.9778 2.94444 13.8889 3.1L12.5556 5.43333C12.4667 5.58889 12.3361 5.68611 12.1639 5.725C11.9917 5.76389 11.8222 5.73889 11.6556 5.65L10.9889 5.31667V11.3333C10.9889 11.5222 10.925 11.6806 10.7972 11.8083C10.6694 11.9361 10.5111 12 10.3222 12H3.65556C3.46667 12 3.30833 11.9361 3.18056 11.8083C3.05278 11.6806 2.98889 11.5222 2.98889 11.3333V5.3ZM4.32222 3.06667V10.6667H9.65556V3.06667L11.7222 4.2L12.4222 3.03333L9.55556 1.36667C9.38889 1.93333 9.075 2.40278 8.61389 2.775C8.15278 3.14722 7.61111 3.33333 6.98889 3.33333C6.36667 3.33333 5.825 3.14722 5.36389 2.775C4.90278 2.40278 4.58889 1.93333 4.42222 1.36667L1.55556 3.03333L2.25556 4.2L4.32222 3.06667Z" fill="white"/>
</svg>
